# xmcd
#
# Track frame offsets: 
#        150
#        17010
#        35422
#        53900
#        77930
#        101617
#        113425
#        133575
#
# Disc length: 1995 seconds
#
# Revision: 0
# Processed by: cddbd v1.5.2PL0 Copyright (c) Steve Scherf et al.
# Submitted via: ExactAudioCopy v0.95b4
#
DISCID=5d07c908
DTITLE=Paul McCartney and Wings  - Wings Over America - Japanese Toshiba
DTITLE=[CD1]
DYEAR=1900
DGENRE=
TTITLE0=Let Me Roll It
TTITLE1=Spirits Of Ancient Egypt
TTITLE2=Medicine Jar
TTITLE3=Maybe I'm Amazed
TTITLE4=Call Me Back Again
TTITLE5=Lady Madonna
TTITLE6=The Long And Winding Road
TTITLE7=Live And Let Die
EXTD=
EXTT0=
EXTT1=
EXTT2=
EXTT3=
EXTT4=
EXTT5=
EXTT6=
EXTT7=
PLAYORDER=
